<?xml version="1.0" encoding="utf-8"?><svg viewBox="0 0 77 77" xmlns="http://www.w3.org/2000/svg" xmlns:xlink="http://www.w3.org/1999/xlink"><style>:root>svg{display:none}:root>svg:target{display:block}</style><svg fill="none" viewBox="0 0 11 7" id="arrow" xmlns="http://www.w3.org/2000/svg"><path d="M1 1l4.5 5L10 1" stroke="#2C2C2C"/></svg><svg fill="none" viewBox="0 0 13 9" id="check" xmlns="http://www.w3.org/2000/svg"><path d="M12.6.377a1.431 1.431 0 00-1.936 0L4.79 5.896 2.336 3.59a1.431 1.431 0 00-1.935 0 1.231 1.231 0 000 1.818l3.42 3.214c.268.252.618.377.968.377s.701-.125.968-.377l6.842-6.428a1.231 1.231 0 000-1.818z" fill="#87AC33"/></svg><svg fill="none" viewBox="0 0 77 77" id="libra" xmlns="http://www.w3.org/2000/svg"><g filter="url(#cfilter0_d)"><circle cx="38.254" cy="38.961" r="23.039" fill="#fff"/></g><path d="M34.702 36.917l6.945 1.929-2.628 4.38s0 0 0 0a.568.568 0 00-.081.293 3.585 3.585 0 003.58 3.581 3.585 3.585 0 003.582-3.581.569.569 0 00-.081-.293l-.086.052.086-.052-2.28-3.799 1.64.456a.57.57 0 00.7-.396h0a.569.569 0 00-.395-.7l-3.018-.839-4.097-1.138v-5.232a.838.838 0 00-.11-.44A.511.511 0 0038 30.9a.532.532 0 00-.307.087.52.52 0 00-.175.213 1.16 1.16 0 00-.087.48v4.814l-3.803-1.056-3.007-.835a.569.569 0 00-.7.395h0a.569.569 0 00.396.7s0 0 0 0l2.292.637-2.628 4.38v.001a.566.566 0 00-.08.292s0 0 0 0h.1c0 .93.361 1.804 1.019 2.462a3.459 3.459 0 002.461 1.02 3.485 3.485 0 003.482-3.481.469.469 0 00-.067-.242l-2.194-3.85zm10.193 7.17a2.448 2.448 0 01-2.376 1.875c-1.152 0-2.12-.8-2.377-1.874h4.753zm-4.384-1.137l2.008-3.347 2.008 3.347H40.51zm-5.022-2.51h-4.015l2.007-3.347 2.008 3.347zm-2.008 3.012c-1.15 0-2.119-.8-2.376-1.875h4.753a2.448 2.448 0 01-2.377 1.875z" fill="#003466" stroke="#003466" stroke-width=".2"/><defs><filter id="cfilter0_d" x=".215" y=".922" width="76.078" height="76.078" filterUnits="userSpaceOnUse" color-interpolation-filters="sRGB"><feFlood flood-opacity="0" result="BackgroundImageFix"/><feColorMatrix in="SourceAlpha" values="0 0 0 0 0 0 0 0 0 0 0 0 0 0 0 0 0 0 127 0"/><feOffset/><feGaussianBlur stdDeviation="7.5"/><feColorMatrix values="0 0 0 0 0 0 0 0 0 0 0 0 0 0 0 0 0 0 0.1 0"/><feBlend in2="BackgroundImageFix" result="effect1_dropShadow"/><feBlend in="SourceGraphic" in2="effect1_dropShadow" result="shape"/></filter></defs></svg></svg>