<svg width="77" height="77" viewBox="0 0 77 77" fill="none" xmlns="http://www.w3.org/2000/svg">
<g filter="url(#filter0_d)">
<circle cx="38.2542" cy="38.9608" r="23.0392" fill="white"/>
</g>
<path d="M34.7024 36.9168L41.6468 38.8458L39.0187 43.2263C39.0187 43.2263 39.0187 43.2263 39.0187 43.2263C38.9656 43.3147 38.9376 43.4159 38.9376 43.5189C38.9376 45.4936 40.544 47.1 42.5188 47.1C44.4935 47.1 46.0999 45.4936 46.0999 43.5189C46.0999 43.4158 46.0719 43.3147 46.0189 43.2263L45.9331 43.2778L46.0189 43.2263L43.7397 39.4271L45.379 39.8825C45.4298 39.8966 45.4811 39.9033 45.5315 39.9033C45.7806 39.9033 46.0093 39.7385 46.0793 39.4867L46.0793 39.4867C46.1633 39.184 45.9862 38.8705 45.6835 38.7865L42.6657 37.9482L38.5689 36.8102V31.5782C38.5689 31.4394 38.5438 31.2734 38.4592 31.1388C38.3705 30.9976 38.2213 30.9 38.0001 30.9C37.8775 30.9 37.7754 30.931 37.6931 30.9873C37.6114 31.0431 37.5556 31.1194 37.5176 31.2003C37.4431 31.3588 37.4314 31.5475 37.4314 31.6798V36.4943L33.6284 35.4379L30.6212 34.6026C30.3186 34.5185 30.0051 34.6957 29.921 34.9984L29.921 34.9984C29.837 35.301 30.0141 35.6145 30.3168 35.6986C30.3168 35.6986 30.3168 35.6986 30.3168 35.6986L32.6094 36.3354L29.9814 40.7159C29.9814 40.7159 29.9814 40.7159 29.9814 40.716C29.9283 40.8043 29.9003 40.9054 29.9004 41.0085C29.9004 41.0085 29.9004 41.0085 29.9004 41.0086L30.0004 41.0085C30.0003 41.9384 30.3624 42.8125 31.0199 43.4701C31.6775 44.1276 32.5517 44.4897 33.4815 44.4897C35.401 44.4897 36.9627 42.9281 36.9627 41.0086C36.9627 40.9236 36.9395 40.8402 36.8958 40.7674L34.7024 36.9168ZM44.8951 44.0876C44.6381 45.1616 43.6702 45.9625 42.5188 45.9625C41.3674 45.9625 40.3995 45.1616 40.1425 44.0876H44.8951ZM40.5108 42.9501L42.5188 39.6032L44.5267 42.9501H40.5108ZM35.4895 40.4398H31.4735L33.4815 37.0929L35.4895 40.4398ZM33.4814 43.4522C32.3301 43.4522 31.3622 42.6513 31.1051 41.5773H35.8578C35.6007 42.6513 34.6328 43.4522 33.4814 43.4522Z" fill="#003466" stroke="#003466" stroke-width="0.2"/>
<defs>
<filter id="filter0_d" x="0.214966" y="0.921661" width="76.0784" height="76.0784" filterUnits="userSpaceOnUse" color-interpolation-filters="sRGB">
<feFlood flood-opacity="0" result="BackgroundImageFix"/>
<feColorMatrix in="SourceAlpha" type="matrix" values="0 0 0 0 0 0 0 0 0 0 0 0 0 0 0 0 0 0 127 0"/>
<feOffset/>
<feGaussianBlur stdDeviation="7.5"/>
<feColorMatrix type="matrix" values="0 0 0 0 0 0 0 0 0 0 0 0 0 0 0 0 0 0 0.1 0"/>
<feBlend mode="normal" in2="BackgroundImageFix" result="effect1_dropShadow"/>
<feBlend mode="normal" in="SourceGraphic" in2="effect1_dropShadow" result="shape"/>
</filter>
</defs>
</svg>
